<?xml version="1.0" encoding="utf-8"?>
<!-- Generator: Adobe Illustrator 16.0.0, SVG Export Plug-In . SVG Version: 6.00 Build 0)  -->
<!DOCTYPE svg PUBLIC "-//W3C//DTD SVG 1.1//EN" "http://www.w3.org/Graphics/SVG/1.1/DTD/svg11.dtd">
<svg version="1.1" id="Layer_1" xmlns="http://www.w3.org/2000/svg" xmlns:xlink="http://www.w3.org/1999/xlink" x="0px" y="0px"
	 width="1500px" height="976px" viewBox="0 0 1500 976" enable-background="new 0 0 1500 976" xml:space="preserve">
<path fill="none" stroke="#000000" stroke-width="9" stroke-miterlimit="10" d="M1267,448"/>
<g>
	<g>
		<path d="M215.643,557.434c13.5-13.2,23.4-38.4,31.5-73.501c-56.701-7.5-84.001-55.5-84.001-105.901
			c0-84.301,63.601-128.102,126.901-128.102c71.401,0,134.401,47.4,134.401,152.402c0,88.801-50.701,186.602-132.901,186.602
			c-36,0-58.801-6.6-74.101-12.6c-15.6,10.2-32.101,14.1-48,14.1l7.5-43.5C190.443,546.934,202.143,551.734,215.643,557.434z
			 M392.045,409.532c0-101.701-45.601-144.602-101.701-144.602c-55.2,0-101.101,47.101-101.101,114.301
			c0,41.4,20.1,82.201,60.9,89.401c3.3-16.8,6.3-35.7,9.3-56.101c7.8-56.101,14.4-93.901,22.5-117.901l27.9,6.9
			c-8.4,23.7-15.9,56.101-22.5,111.001c-2.7,21-5.7,39.301-9.6,55.801c30-6.6,47.701-33.601,47.701-59.701
			c0-11.1-3.3-22.2-10.2-31.5l22.2-19.8c10.5,13.2,15.6,29.1,15.6,45c0,38.4-29.1,77.4-79.5,82.201
			c-10.8,37.8-25.2,63-41.101,79.501c15,5.4,33.601,9.9,59.101,9.9C356.945,573.934,392.045,488.733,392.045,409.532z"/>
		<path d="M521.34,447.633c1.8,0,8.4,2.4,8.4,4.2c-15,39.3-30,70.5-59.401,70.5c-26.1,0-36.9-24-36.9-52.201
			c0-40.8,22.5-90.601,56.101-90.601c15,0,22.5,10.8,22.5,24.6c0,21.3-18,50.101-53.401,55.801c0,1.5,0,3,0,4.5
			c0,18,5.1,32.4,18.9,32.4C495.24,496.833,509.94,478.233,521.34,447.633z M459.54,448.533c22.5-11.1,32.4-31.8,32.4-42.9
			c0-4.5-1.8-7.5-4.8-7.5C474.839,398.132,463.139,423.632,459.54,448.533z"/>
		<path d="M563.938,464.133c-3.899-10.2-6-22.8-6-36c0-32.101,11.7-66.001,31.501-66.001c12,0,20.7,9.6,20.7,26.4
			c0,26.7-11.4,58.801-27.001,86.401c2.4,1.2,5.101,2.1,8.4,2.1c13.5,0,21.3-12.3,27.601-29.4c1.8,0,8.399,2.4,8.399,4.2
			c-7.199,20.1-18.3,34.2-37.8,34.2c-4.2,0-8.101-0.9-11.4-3c-8.7,14.7-18.6,27.3-28.2,36.3h-16.2c-1.8-24.9-3.6-47.4-4.5-67.5
			c-1.8-0.3-8.1-2.1-8.1-4.2l6.9-18c-0.3-5.7-0.3-11.4-0.3-16.5c0-11.4,0.3-21.6,1.5-30.6h21.3c0.301,1.2,0.601,3,0.601,5.1
			c0,8.1-2.4,16.2-8.4,31.8c0.9,16.8,2.4,41.1,5.4,71.701C554.039,482.733,559.438,473.433,563.938,464.133z M585.838,375.332
			c-9.3,0-17.1,28.8-17.1,55.801c0,6.6,0.6,12.9,1.5,18.9c12.899-30.3,18.899-59.701,18.899-69.601
			C589.138,376.532,587.939,375.332,585.838,375.332z"/>
		<path d="M777.235,341.132c-7.201-3.6-14.701-5.1-21.9-5.1c-27,0-51.901,22.8-51.901,58.201c0,41.4,28.5,74.101,84.602,74.4
			c0.6-96.901,50.1-216.302,127.201-216.302c35.699,0,52.799,27,52.799,62.401c0,63-53.699,153.001-152.102,167.102
			c0,46.5,9.002,84.301,35.4,92.101c-1.199-7.2-1.799-14.7-1.799-22.2c0-44.4,21-88.501,58.201-88.501c25.5,0,38.1,20.7,38.1,45.601
			c0,32.4-21.9,71.4-66.301,79.801c7.199,16.2,18.9,28.5,35.701,32.4l-8.4,21.001c-26.701-5.7-43.5-26.4-51.602-52.201
			c-43.199-4.2-64.199-49.8-66.9-106.201c-71.401,0-110.101-43.201-110.101-91.501c0-51.301,37.801-82.201,77.701-82.201
			c11.4,0,22.801,2.7,33.9,7.8L777.235,341.132z M816.536,465.933c83.701-15.9,124.801-102.901,124.801-156.302
			c0-24.9-8.699-42.3-26.1-42.3C863.937,267.331,822.536,377.432,816.536,465.933z M870.536,543.334c0,10.2,1.199,20.7,3.9,30.6
			c31.801-7.8,49.199-44.101,49.199-69.601c0-14.7-6-26.101-18.299-26.101C883.437,478.233,870.536,509.733,870.536,543.334z"/>
		<path d="M1034.034,447.633c1.5,0,7.201,2.4,7.201,3.9c0,0.3,0,0.3,0,0.3c-17.701,48-31.502,70.5-51.002,70.5
			c-18,0-25.199-17.7-25.199-48.9c0-21.9,3.6-50.701,9.6-84.901c13.5-75.301,32.4-109.201,49.801-109.201
			c15.6,0,20.1,12.6,20.1,27.9c0,17.7-6,39-9,48.3c-12.299,39.3-32.4,68.701-44.4,83.401c-1.5,12.9-2.4,24.6-2.4,34.2
			c0,20.101,4.5,26.4,11.4,26.4C1009.733,499.533,1021.134,480.933,1034.034,447.633z M1028.335,299.431
			c-8.1,0-25.801,64.801-34.5,120.602c15-27.3,37.199-77.401,37.5-114.001C1031.335,301.831,1029.835,299.431,1028.335,299.431z"/>
		<path d="M1073.333,382.532c0,0-6,24.9-13.5,63.3c-3.301,16.8-6,30.9-6,42.901c0,8.7,3.301,10.2,6,10.2
			c4.801,0,13.801-17.7,20.1-43.8l1.801-9.9c4.5-25.5,10.199-47.701,13.801-62.701h25.5c-10.5,46.8-19.201,81.601-19.201,106.201
			c0,8.7,3.301,10.2,6,10.2c7.801,0,17.701-16.8,30.9-51.3c1.5,0,8.4,2.1,8.4,3.9v0.3c-13.199,34.2-23.699,69-48.301,69
			c-13.199,0-19.199-9.9-21-24.6c-6.6,14.7-15.301,24.6-27,24.6c-15.9,0-21.301-14.4-21.301-34.5c0-12.3,2.1-26.7,4.801-41.1
			c7.5-39,13.5-62.701,13.5-62.701H1073.333z"/>
		<path d="M1205.034,488.733c-9.9,18-23.4,32.1-37.5,32.1c-22.201,0-30.002-20.1-30.002-50.701c0-18.6,3-41.1,7.5-65.4
			c14.102-77.401,22.502-124.801,51.002-124.801c12.299,0,17.699,6.9,17.699,17.7c0,19.5-17.1,51.9-43.5,83.401l-0.9,5.1l-1.199,5.7
			c6.299-6.3,14.1-10.2,22.5-10.2c21.6,0,28.5,21.3,28.5,52.2c0,13.5-3.301,28.2-8.1,41.4 M1181.634,488.733
			c-11.1-2.7-18-9.9-22.201-19.2c0,17.4,1.5,29.1,8.701,29.1C1173.233,498.633,1177.733,495.033,1181.634,488.733z
			 M1184.034,401.132c-13.5,0-21.9,18.3-21.9,37.2c0,17.4,7.5,35.701,24.6,39.301c5.4-14.4,8.699-33.301,8.699-49.801
			S1191.833,401.132,1184.034,401.132z M1200.233,303.631c0-2.7-1.199-4.2-2.699-4.2c-2.102,0-9,3-22.5,59.701
			c9.6-14.1,21-33.6,24.898-53.101C1199.933,305.131,1200.233,304.231,1200.233,303.631z"/>
	</g>
	<g>
		<path d="M1203.098,481.359c0,0,5.034,1.595,14.474,4.586c2.36,0.748,4.995,1.583,7.896,2.502c1.45,0.459,2.967,0.94,4.549,1.441
			c0.396,0.125,0.795,0.252,1.198,0.38l0.608,0.192l0.153,0.049c0.115,0.035-0.458-0.131-0.142-0.041l0.312,0.086
			c0.866,0.246,1.749,0.496,2.649,0.751c7.055,2.051,15.034,4.579,23.903,7.708c8.861,3.14,18.603,6.855,29.023,11.528
			c5.209,2.342,10.587,4.927,16.079,7.879c5.488,2.965,11.105,6.261,16.695,10.251c2.793,1.998,5.583,4.157,8.304,6.607
			c2.72,2.441,5.387,5.161,7.823,8.356c2.432,3.174,4.646,6.917,6.03,11.332c1.397,4.385,1.695,9.564,0.487,14.303
			c-1.18,4.746-3.543,8.892-6.28,12.341c-2.749,3.477-5.888,6.37-9.155,8.977c-6.577,5.153-13.728,9.176-21.127,12.79
			c-7.414,3.581-15.109,6.714-23.017,9.576c-7.906,2.873-16.026,5.475-24.323,7.913c-16.594,4.883-33.896,9.088-51.745,12.955
			c-8.925,1.93-17.99,3.766-27.179,5.524c-2.299,0.433-4.604,0.867-6.916,1.302l-0.867,0.163l-0.971,0.165l-1.736,0.289
			c-1.159,0.192-2.319,0.386-3.482,0.579c-4.648,0.773-9.323,1.551-14.023,2.333c-2.351,0.391-4.707,0.782-7.07,1.176
			c-2.372,0.37-4.71,0.839-7.131,1.124c-4.812,0.642-9.647,1.287-14.507,1.935c-4.857,0.647-9.739,1.297-14.642,1.95l-3.682,0.479
			l-3.688,0.388c-2.461,0.259-4.928,0.518-7.399,0.777c-4.943,0.519-9.907,1.04-14.89,1.562c-4.983,0.521-9.981,1.086-15.014,1.441
			c-10.056,0.812-20.183,1.629-30.372,2.452c-20.397,1.251-41.037,2.599-61.862,3.304c-41.639,1.65-83.956,2.35-126.251,2.039
			c-42.295-0.266-84.577-1.107-126.163-2.733c-41.586-1.578-82.492-3.535-122.04-6.009c-39.55-2.425-77.759-5.092-113.958-8.014
			c-36.203-2.875-70.406-5.868-101.955-8.874c-15.778-1.456-30.886-2.996-45.258-4.405c-14.365-1.489-27.996-2.856-40.794-4.253
			c-25.603-2.719-47.904-5.268-66.263-7.413c-36.718-4.304-57.656-7.105-57.656-7.105s20.97,2.554,57.731,6.422
			c18.381,1.929,40.708,4.213,66.336,6.628c12.811,1.244,26.454,2.45,40.831,3.769c14.385,1.238,29.504,2.6,45.293,3.868
			c31.57,2.632,65.792,5.219,102.006,7.663c36.21,2.492,74.422,4.705,113.962,6.66c39.539,2.004,80.421,3.475,121.964,4.559
			c41.542,1.132,83.757,1.473,125.954,1.238c42.197-0.189,84.378-1.387,125.821-3.521c20.732-0.947,41.25-2.532,61.521-4.016
			c10.115-0.938,20.169-1.868,30.151-2.794c4.997-0.411,9.949-1.031,14.888-1.606c4.938-0.578,9.856-1.153,14.755-1.727
			c2.448-0.286,4.893-0.571,7.33-0.856l3.654-0.428l3.622-0.516c4.819-0.7,9.617-1.397,14.393-2.091
			c4.774-0.693,9.526-1.383,14.254-2.068c2.36-0.304,4.731-0.807,7.087-1.203c2.358-0.421,4.71-0.841,7.056-1.26
			c4.69-0.837,9.356-1.67,13.995-2.498c1.16-0.207,2.318-0.414,3.475-0.621l1.733-0.309l0.763-0.138l0.857-0.172
			c2.287-0.459,4.566-0.916,6.84-1.371c9.085-1.852,18.033-3.774,26.828-5.785c17.585-4.027,34.572-8.374,50.696-13.328
			c16.103-4.953,31.438-10.466,45.096-17.233c6.787-3.403,13.167-7.154,18.481-11.433c2.628-2.144,4.987-4.42,6.8-6.781
			c1.831-2.356,3.053-4.774,3.592-7.057c0.529-2.288,0.387-4.488-0.355-6.792c-0.752-2.293-2.084-4.642-3.841-6.858
			c-3.505-4.461-8.266-8.384-13.172-11.804c-4.93-3.436-10.111-6.407-15.233-9.095c-5.133-2.682-10.239-5.064-15.215-7.23
			c-9.961-4.327-19.398-7.804-27.992-10.733c-8.596-2.919-16.385-5.285-23.139-7.162c-0.829-0.225-1.644-0.445-2.441-0.662
			l-0.312-0.082l-0.604-0.176l-0.61-0.186c-0.405-0.123-0.806-0.245-1.203-0.365c-1.588-0.482-3.109-0.945-4.565-1.388
			c-2.911-0.885-5.556-1.688-7.925-2.408c-9.474-2.879-14.526-4.414-14.526-4.414L1203.098,481.359z"/>
	</g>
</g>
<text transform="matrix(1 0 0 1 676.8555 195.4365)" font-family="'nevis-Bold'" font-size="100">TJ </text>
<g>
	<g>
		<path d="M704.002,221c21.999,0,43.997,0,65.996,0c9.673,0,9.673-15,0-15c-21.999,0-43.998,0-65.996,0
			C694.329,206,694.329,221,704.002,221L704.002,221z"/>
	</g>
</g>
<g>
	<rect x="556.709" y="736.827" width="389.14" height="66.886"/>
	<polyline points="548.295,750.664 548.295,828.689 497.488,828.689 522.892,789.677 497.488,750.664 	"/>
	<polyline points="951.705,750.664 951.705,828.689 1002.512,828.689 977.108,789.677 1002.512,750.664 	"/>
	<rect x="555.43" y="736.827" width="389.141" height="66.886"/>
	<text transform="matrix(1 0 0 1 623.5825 791)" fill="#FFFFFF" font-family="'nevis-Bold'" font-size="54">2014 - 15</text>
</g>
</svg>
